<mxfile host="app.diagrams.net" modified="2024-05-16T09:09:25.448Z" agent="Mozilla/5.0 (Windows NT 10.0; Win64; x64) AppleWebKit/537.36 (KHTML, like Gecko) Chrome/124.0.0.0 Safari/537.36 Edg/124.0.0.0" etag="DXAMRLYnFhdFzAGh7QEN" version="24.4.2" type="github">
  <diagram name="Page-1" id="e7e014a7-5840-1c2e-5031-d8a46d1fe8dd">
    <mxGraphModel dx="1645" dy="752" grid="0" gridSize="10" guides="1" tooltips="1" connect="1" arrows="0" fold="1" page="0" pageScale="1" pageWidth="1169" pageHeight="826" background="#ffffff" math="0" shadow="0">
      <root>
        <mxCell id="0" />
        <mxCell id="1" parent="0" />
        <mxCell id="2" value="团队创建人/管理员" style="swimlane;whiteSpace=wrap;fontColor=#000000;strokeColor=default;strokeWidth=2;" parent="1" vertex="1">
          <mxGeometry x="110" y="128" width="334.5" height="642" as="geometry" />
        </mxCell>
        <mxCell id="X5kjKqMFiwUnmaEWyvKP-103" style="edgeStyle=orthogonalEdgeStyle;rounded=0;orthogonalLoop=1;jettySize=auto;html=1;entryX=0.5;entryY=0;entryDx=0;entryDy=0;endArrow=open;endFill=0;strokeColor=default;fontColor=#000000;strokeWidth=2;" parent="2" source="5" target="X5kjKqMFiwUnmaEWyvKP-41" edge="1">
          <mxGeometry relative="1" as="geometry" />
        </mxCell>
        <mxCell id="5" value="" style="ellipse;shape=startState;fillColor=#000000;strokeColor=default;fontColor=#000000;strokeWidth=2;" parent="2" vertex="1">
          <mxGeometry x="68.25" y="40" width="30" height="30" as="geometry" />
        </mxCell>
        <mxCell id="X5kjKqMFiwUnmaEWyvKP-74" style="edgeStyle=orthogonalEdgeStyle;rounded=0;orthogonalLoop=1;jettySize=auto;html=1;entryX=0;entryY=0.5;entryDx=0;entryDy=0;endArrow=open;endFill=0;strokeColor=default;fontColor=#000000;strokeWidth=2;" parent="2" source="X5kjKqMFiwUnmaEWyvKP-41" target="X5kjKqMFiwUnmaEWyvKP-52" edge="1">
          <mxGeometry relative="1" as="geometry" />
        </mxCell>
        <mxCell id="X5kjKqMFiwUnmaEWyvKP-41" value="是否个人标注？" style="rhombus;fillColor=#ffffff;strokeColor=default;fontColor=#000000;strokeWidth=2;" parent="2" vertex="1">
          <mxGeometry x="25.5" y="92" width="115.5" height="50" as="geometry" />
        </mxCell>
        <mxCell id="X5kjKqMFiwUnmaEWyvKP-67" style="edgeStyle=orthogonalEdgeStyle;rounded=0;orthogonalLoop=1;jettySize=auto;html=1;endArrow=open;endFill=0;strokeColor=default;fontColor=#000000;strokeWidth=2;" parent="2" source="X5kjKqMFiwUnmaEWyvKP-48" target="X5kjKqMFiwUnmaEWyvKP-64" edge="1">
          <mxGeometry relative="1" as="geometry" />
        </mxCell>
        <mxCell id="X5kjKqMFiwUnmaEWyvKP-48" value="自定义标签" style="strokeColor=default;fontColor=#000000;strokeWidth=2;" parent="2" vertex="1">
          <mxGeometry x="38.25" y="300" width="110" height="30" as="geometry" />
        </mxCell>
        <mxCell id="X5kjKqMFiwUnmaEWyvKP-66" style="edgeStyle=orthogonalEdgeStyle;rounded=0;orthogonalLoop=1;jettySize=auto;html=1;entryX=0.5;entryY=0;entryDx=0;entryDy=0;endArrow=open;endFill=0;strokeColor=default;fontColor=#000000;strokeWidth=2;" parent="2" source="X5kjKqMFiwUnmaEWyvKP-49" target="X5kjKqMFiwUnmaEWyvKP-48" edge="1">
          <mxGeometry relative="1" as="geometry" />
        </mxCell>
        <mxCell id="X5kjKqMFiwUnmaEWyvKP-49" value="上传待标注数据" style="strokeColor=default;fontColor=#000000;strokeWidth=2;" parent="2" vertex="1">
          <mxGeometry x="38.25" y="252" width="110" height="30" as="geometry" />
        </mxCell>
        <mxCell id="X5kjKqMFiwUnmaEWyvKP-63" style="edgeStyle=orthogonalEdgeStyle;rounded=0;orthogonalLoop=1;jettySize=auto;html=1;entryX=0.5;entryY=0;entryDx=0;entryDy=0;endArrow=open;endFill=0;strokeColor=default;fontColor=#000000;strokeWidth=2;" parent="2" source="X5kjKqMFiwUnmaEWyvKP-50" target="X5kjKqMFiwUnmaEWyvKP-49" edge="1">
          <mxGeometry relative="1" as="geometry" />
        </mxCell>
        <mxCell id="X5kjKqMFiwUnmaEWyvKP-50" value="创建标注任务" style="strokeColor=default;fontColor=#000000;strokeWidth=2;" parent="2" vertex="1">
          <mxGeometry x="38.25" y="202" width="110" height="30" as="geometry" />
        </mxCell>
        <mxCell id="X5kjKqMFiwUnmaEWyvKP-61" style="edgeStyle=orthogonalEdgeStyle;rounded=0;orthogonalLoop=1;jettySize=auto;html=1;exitX=0.5;exitY=1;exitDx=0;exitDy=0;entryX=0.5;entryY=0;entryDx=0;entryDy=0;endArrow=open;endFill=0;strokeColor=default;fontColor=#000000;strokeWidth=2;" parent="2" source="X5kjKqMFiwUnmaEWyvKP-52" target="X5kjKqMFiwUnmaEWyvKP-54" edge="1">
          <mxGeometry relative="1" as="geometry" />
        </mxCell>
        <mxCell id="X5kjKqMFiwUnmaEWyvKP-52" value="创建标注团队" style="strokeColor=default;fontColor=#000000;strokeWidth=2;" parent="2" vertex="1">
          <mxGeometry x="210" y="102" width="94.5" height="30" as="geometry" />
        </mxCell>
        <mxCell id="X5kjKqMFiwUnmaEWyvKP-54" value="邀请标注员" style="strokeColor=default;fontColor=#000000;strokeWidth=2;" parent="2" vertex="1">
          <mxGeometry x="210" y="162" width="94.5" height="30" as="geometry" />
        </mxCell>
        <mxCell id="X5kjKqMFiwUnmaEWyvKP-55" value="邀请审核员" style="strokeColor=default;fontColor=#000000;strokeWidth=2;" parent="2" vertex="1">
          <mxGeometry x="210" y="222" width="94.5" height="30" as="geometry" />
        </mxCell>
        <mxCell id="X5kjKqMFiwUnmaEWyvKP-70" style="edgeStyle=orthogonalEdgeStyle;rounded=0;orthogonalLoop=1;jettySize=auto;html=1;entryX=0.5;entryY=0;entryDx=0;entryDy=0;endArrow=open;endFill=0;strokeColor=default;fontColor=#000000;strokeWidth=2;" parent="2" source="X5kjKqMFiwUnmaEWyvKP-64" target="X5kjKqMFiwUnmaEWyvKP-45" edge="1">
          <mxGeometry relative="1" as="geometry" />
        </mxCell>
        <mxCell id="X5kjKqMFiwUnmaEWyvKP-64" value="是否自动标注？" style="rhombus;fillColor=#ffffff;strokeColor=default;fontColor=#000000;strokeWidth=2;" parent="2" vertex="1">
          <mxGeometry x="35.5" y="352" width="115.5" height="50" as="geometry" />
        </mxCell>
        <mxCell id="X5kjKqMFiwUnmaEWyvKP-45" value="模型预标注" style="strokeColor=default;fontColor=#000000;strokeWidth=2;" parent="2" vertex="1">
          <mxGeometry x="38.25" y="432" width="110" height="30" as="geometry" />
        </mxCell>
        <mxCell id="X5kjKqMFiwUnmaEWyvKP-72" style="edgeStyle=orthogonalEdgeStyle;rounded=0;orthogonalLoop=1;jettySize=auto;html=1;entryX=0.5;entryY=0;entryDx=0;entryDy=0;endArrow=open;endFill=0;strokeColor=default;fontColor=#000000;strokeWidth=2;" parent="2" source="X5kjKqMFiwUnmaEWyvKP-46" target="X5kjKqMFiwUnmaEWyvKP-47" edge="1">
          <mxGeometry relative="1" as="geometry" />
        </mxCell>
        <mxCell id="X5kjKqMFiwUnmaEWyvKP-46" value="导出数据" style="strokeColor=default;fontColor=#000000;strokeWidth=2;" parent="2" vertex="1">
          <mxGeometry x="38.25" y="502" width="110" height="30" as="geometry" />
        </mxCell>
        <mxCell id="X5kjKqMFiwUnmaEWyvKP-73" style="edgeStyle=orthogonalEdgeStyle;rounded=0;orthogonalLoop=1;jettySize=auto;html=1;entryX=0.5;entryY=0;entryDx=0;entryDy=0;endArrow=open;endFill=0;strokeColor=default;fontColor=#000000;strokeWidth=2;" parent="2" source="X5kjKqMFiwUnmaEWyvKP-47" target="X5kjKqMFiwUnmaEWyvKP-68" edge="1">
          <mxGeometry relative="1" as="geometry" />
        </mxCell>
        <mxCell id="X5kjKqMFiwUnmaEWyvKP-47" value="训练新的标注模型" style="strokeColor=default;fontColor=#000000;strokeWidth=2;" parent="2" vertex="1">
          <mxGeometry x="38.25" y="552" width="110" height="30" as="geometry" />
        </mxCell>
        <mxCell id="X5kjKqMFiwUnmaEWyvKP-68" value="" style="ellipse;shape=endState;fillColor=#000000;strokeColor=default;fontColor=#000000;strokeWidth=2;" parent="2" vertex="1">
          <mxGeometry x="78.25" y="602" width="30" height="30" as="geometry" />
        </mxCell>
        <mxCell id="X5kjKqMFiwUnmaEWyvKP-79" style="edgeStyle=orthogonalEdgeStyle;rounded=0;orthogonalLoop=1;jettySize=auto;html=1;entryX=0.5;entryY=0;entryDx=0;entryDy=0;endArrow=open;endFill=0;strokeColor=default;fontColor=#000000;strokeWidth=2;" parent="2" source="X5kjKqMFiwUnmaEWyvKP-75" target="X5kjKqMFiwUnmaEWyvKP-50" edge="1">
          <mxGeometry relative="1" as="geometry" />
        </mxCell>
        <mxCell id="X5kjKqMFiwUnmaEWyvKP-75" value="" style="shape=line;strokeWidth=2;strokeColor=default;rotation=0;fontColor=#000000;" parent="2" vertex="1">
          <mxGeometry x="68.25" y="162" width="50" height="15" as="geometry" />
        </mxCell>
        <mxCell id="X5kjKqMFiwUnmaEWyvKP-91" style="edgeStyle=orthogonalEdgeStyle;rounded=0;orthogonalLoop=1;jettySize=auto;html=1;entryX=0.298;entryY=0.269;entryDx=0;entryDy=0;entryPerimeter=0;endArrow=open;endFill=0;strokeColor=default;fontColor=#000000;strokeWidth=2;" parent="2" source="X5kjKqMFiwUnmaEWyvKP-41" target="X5kjKqMFiwUnmaEWyvKP-75" edge="1">
          <mxGeometry relative="1" as="geometry" />
        </mxCell>
        <mxCell id="3" value="标注员" style="swimlane;whiteSpace=wrap;fontColor=#000000;strokeColor=default;strokeWidth=2;" parent="1" vertex="1">
          <mxGeometry x="444.5" y="128" width="215.5" height="642" as="geometry" />
        </mxCell>
        <mxCell id="X5kjKqMFiwUnmaEWyvKP-57" value="接受邀请" style="strokeColor=default;fontColor=#000000;strokeWidth=2;" parent="3" vertex="1">
          <mxGeometry x="52.75" y="162" width="110" height="30" as="geometry" />
        </mxCell>
        <mxCell id="X5kjKqMFiwUnmaEWyvKP-59" value="手动添加标签" style="strokeColor=default;fontColor=#000000;strokeWidth=2;" parent="3" vertex="1">
          <mxGeometry x="52.75" y="362" width="110" height="30" as="geometry" />
        </mxCell>
        <mxCell id="4" value="审核员" style="swimlane;whiteSpace=wrap;fontColor=default;fillStyle=auto;labelBackgroundColor=none;labelBorderColor=none;strokeColor=default;strokeWidth=2;" parent="1" vertex="1">
          <mxGeometry x="660" y="128" width="200" height="642" as="geometry" />
        </mxCell>
        <mxCell id="X5kjKqMFiwUnmaEWyvKP-56" value="接受邀请" style="strokeColor=default;fontColor=#000000;strokeWidth=2;" parent="4" vertex="1">
          <mxGeometry x="40" y="222" width="110" height="30" as="geometry" />
        </mxCell>
        <mxCell id="X5kjKqMFiwUnmaEWyvKP-58" value="审核标注结果" style="strokeColor=default;fontColor=#000000;strokeWidth=2;" parent="4" vertex="1">
          <mxGeometry x="45" y="502" width="110" height="30" as="geometry" />
        </mxCell>
        <mxCell id="X5kjKqMFiwUnmaEWyvKP-97" style="edgeStyle=orthogonalEdgeStyle;rounded=0;orthogonalLoop=1;jettySize=auto;html=1;entryX=0.5;entryY=0;entryDx=0;entryDy=0;endArrow=open;endFill=0;strokeColor=default;fontColor=#000000;strokeWidth=2;" parent="4" source="X5kjKqMFiwUnmaEWyvKP-96" target="X5kjKqMFiwUnmaEWyvKP-58" edge="1">
          <mxGeometry relative="1" as="geometry" />
        </mxCell>
        <mxCell id="X5kjKqMFiwUnmaEWyvKP-96" value="" style="shape=line;strokeWidth=2;strokeColor=default;rotation=0;fontColor=#000000;" parent="4" vertex="1">
          <mxGeometry x="75" y="462" width="50" height="18" as="geometry" />
        </mxCell>
        <mxCell id="X5kjKqMFiwUnmaEWyvKP-82" style="edgeStyle=orthogonalEdgeStyle;rounded=0;orthogonalLoop=1;jettySize=auto;html=1;entryX=0;entryY=0.5;entryDx=0;entryDy=0;endArrow=open;endFill=0;strokeColor=default;fontColor=#000000;strokeWidth=2;" parent="1" source="X5kjKqMFiwUnmaEWyvKP-54" target="X5kjKqMFiwUnmaEWyvKP-57" edge="1">
          <mxGeometry relative="1" as="geometry" />
        </mxCell>
        <mxCell id="X5kjKqMFiwUnmaEWyvKP-83" style="edgeStyle=orthogonalEdgeStyle;rounded=0;orthogonalLoop=1;jettySize=auto;html=1;entryX=0.5;entryY=0;entryDx=0;entryDy=0;endArrow=open;endFill=0;strokeColor=default;fontColor=#000000;strokeWidth=2;" parent="1" source="X5kjKqMFiwUnmaEWyvKP-57" target="X5kjKqMFiwUnmaEWyvKP-55" edge="1">
          <mxGeometry relative="1" as="geometry">
            <mxPoint x="530" y="369.9999999999998" as="targetPoint" />
            <Array as="points">
              <mxPoint x="552" y="330" />
              <mxPoint x="367" y="330" />
            </Array>
          </mxGeometry>
        </mxCell>
        <mxCell id="X5kjKqMFiwUnmaEWyvKP-84" style="edgeStyle=orthogonalEdgeStyle;rounded=0;orthogonalLoop=1;jettySize=auto;html=1;entryX=0;entryY=0.5;entryDx=0;entryDy=0;endArrow=open;endFill=0;strokeColor=default;fontColor=#000000;strokeWidth=2;" parent="1" source="X5kjKqMFiwUnmaEWyvKP-55" target="X5kjKqMFiwUnmaEWyvKP-56" edge="1">
          <mxGeometry relative="1" as="geometry" />
        </mxCell>
        <mxCell id="X5kjKqMFiwUnmaEWyvKP-94" style="edgeStyle=orthogonalEdgeStyle;rounded=0;orthogonalLoop=1;jettySize=auto;html=1;entryX=0.692;entryY=0.248;entryDx=0;entryDy=0;entryPerimeter=0;endArrow=open;endFill=0;strokeColor=default;fontColor=#000000;strokeWidth=2;" parent="1" source="X5kjKqMFiwUnmaEWyvKP-56" target="X5kjKqMFiwUnmaEWyvKP-75" edge="1">
          <mxGeometry relative="1" as="geometry">
            <Array as="points">
              <mxPoint x="755" y="400" />
              <mxPoint x="290" y="400" />
              <mxPoint x="290" y="280" />
              <mxPoint x="213" y="280" />
            </Array>
          </mxGeometry>
        </mxCell>
        <mxCell id="X5kjKqMFiwUnmaEWyvKP-95" style="edgeStyle=orthogonalEdgeStyle;rounded=0;orthogonalLoop=1;jettySize=auto;html=1;entryX=0;entryY=0.5;entryDx=0;entryDy=0;endArrow=open;endFill=0;strokeColor=default;fontColor=#000000;strokeWidth=2;" parent="1" source="X5kjKqMFiwUnmaEWyvKP-64" target="X5kjKqMFiwUnmaEWyvKP-59" edge="1">
          <mxGeometry relative="1" as="geometry" />
        </mxCell>
        <mxCell id="X5kjKqMFiwUnmaEWyvKP-99" style="edgeStyle=orthogonalEdgeStyle;rounded=0;orthogonalLoop=1;jettySize=auto;html=1;entryX=0.767;entryY=0.333;entryDx=0;entryDy=0;entryPerimeter=0;endArrow=open;endFill=0;strokeColor=default;fontColor=#000000;strokeWidth=2;" parent="1" source="X5kjKqMFiwUnmaEWyvKP-59" target="X5kjKqMFiwUnmaEWyvKP-96" edge="1">
          <mxGeometry relative="1" as="geometry" />
        </mxCell>
        <mxCell id="X5kjKqMFiwUnmaEWyvKP-101" style="edgeStyle=orthogonalEdgeStyle;rounded=0;orthogonalLoop=1;jettySize=auto;html=1;entryX=0.26;entryY=0.265;entryDx=0;entryDy=0;entryPerimeter=0;endArrow=open;endFill=0;strokeColor=default;fontColor=#000000;strokeWidth=2;" parent="1" source="X5kjKqMFiwUnmaEWyvKP-45" target="X5kjKqMFiwUnmaEWyvKP-96" edge="1">
          <mxGeometry relative="1" as="geometry">
            <Array as="points">
              <mxPoint x="748" y="575" />
            </Array>
          </mxGeometry>
        </mxCell>
        <mxCell id="X5kjKqMFiwUnmaEWyvKP-102" style="edgeStyle=orthogonalEdgeStyle;rounded=0;orthogonalLoop=1;jettySize=auto;html=1;entryX=1;entryY=0.5;entryDx=0;entryDy=0;endArrow=open;endFill=0;strokeColor=default;fontColor=#000000;strokeWidth=2;" parent="1" source="X5kjKqMFiwUnmaEWyvKP-58" target="X5kjKqMFiwUnmaEWyvKP-46" edge="1">
          <mxGeometry relative="1" as="geometry" />
        </mxCell>
      </root>
    </mxGraphModel>
  </diagram>
</mxfile>
